<?xml version="1.0" encoding="UTF-8" standalone="no"?>
<!-- Created with Inkscape (http://www.inkscape.org/) -->

<svg
   width="38.86166mm"
   height="20.740402mm"
   viewBox="0 0 38.86166 20.740402"
   version="1.1"
   id="svg5"
   inkscape:version="1.2.1 (9c6d41e410, 2022-07-14)"
   sodipodi:docname="logo-inkscape.svg"
   xmlns:inkscape="http://www.inkscape.org/namespaces/inkscape"
   xmlns:sodipodi="http://sodipodi.sourceforge.net/DTD/sodipodi-0.dtd"
   xmlns="http://www.w3.org/2000/svg"
   xmlns:svg="http://www.w3.org/2000/svg">
  <sodipodi:namedview
     id="namedview7"
     pagecolor="#000000"
     bordercolor="#00d2e3"
     borderopacity="1"
     inkscape:showpageshadow="0"
     inkscape:pageopacity="0.62352941"
     inkscape:pagecheckerboard="1"
     inkscape:deskcolor="#505050"
     inkscape:document-units="mm"
     showgrid="false"
     inkscape:zoom="5.7299663"
     inkscape:cx="55.061406"
     inkscape:cy="44.939182"
     inkscape:window-width="1920"
     inkscape:window-height="991"
     inkscape:window-x="-9"
     inkscape:window-y="-9"
     inkscape:window-maximized="1"
     inkscape:current-layer="layer1" />
  <defs
     id="defs2">
    <rect
       x="39.092724"
       y="307.15714"
       width="809.77789"
       height="326.70349"
       id="rect2544" />
  </defs>
  <g
     inkscape:label="Layer 1"
     inkscape:groupmode="layer"
     id="layer1"
     transform="translate(-132.8196,-38.549908)">
    <path
       sodipodi:type="star"
       style="opacity:1;fill:#0083e0;fill-opacity:1;stroke:#0083e0;stroke-width:0;stroke-linecap:round;stroke-linejoin:round;stroke-dasharray:none;stroke-opacity:1;paint-order:markers fill stroke;stop-color:#000000"
       id="path2858"
       inkscape:flatsided="true"
       sodipodi:sides="6"
       sodipodi:cx="101.04771"
       sodipodi:cy="70.681046"
       sodipodi:r1="45.257866"
       sodipodi:r2="39.194462"
       sodipodi:arg1="0"
       sodipodi:arg2="0.52359878"
       inkscape:rounded="0"
       inkscape:randomized="0"
       d="M 146.30557,70.681046 123.67664,109.87551 H 78.418774 L 55.789841,70.681046 78.418774,31.486584 l 45.257866,0 z"
       transform="matrix(0.26458333,0,0,0.26458333,125.52751,30.219083)" />
    <g
       id="g2804"
       transform="translate(2.196615,6.0721574)"
       style="fill:#ffffff;fill-opacity:1;stroke:#0083e0;stroke-width:0.0735542;stroke-dasharray:none;stroke-opacity:1">
      <g
         id="g2744"
         transform="translate(-0.25555478)"
         style="fill:#ffffff;fill-opacity:1;stroke:#0083e0;stroke-width:0.0735542;stroke-dasharray:none;stroke-opacity:1">
        <g
           id="path2576"
           transform="matrix(0.21019807,0,0,0.21019807,-4.214948,-35.907333)"
           style="font-size:64px;font-family:Papyrus;-inkscape-font-specification:'Papyrus, Normal';white-space:pre;fill:#ffffff;fill-opacity:1;stroke:#0083e0;stroke-width:0.349928;stroke-linecap:round;stroke-linejoin:round;stroke-dasharray:none;stroke-opacity:1;paint-order:markers fill stroke">
          <path
             style="color:#000000;-inkscape-font-specification:Hexatus;fill:#ffffff;fill-opacity:1;stroke:#0083e0;stroke-width:0.349928;stroke-linecap:butt;stroke-linejoin:miter;stroke-dasharray:none;stroke-opacity:1"
             d="m 654.40234,334.88111 8.875,5.15625 v 32.53125 l -8.875,5.15625 v -18.4375 l -2.28125,1.34375 0.0312,17.21875 -8.78125,-5.0625 v -32.84375 l 8.6875,-4.9375 v 16.84375 l 2.34375,-1.3125 z"
             id="path2605" />
          <path
             style="color:#000000;-inkscape-font-specification:Hexatus;fill:#ffffff;fill-opacity:1;stroke:#0083e0;stroke-width:0.349928;stroke-linecap:butt;stroke-linejoin:miter;stroke-dasharray:none;stroke-opacity:1"
             d="m 654.15234,334.44727 a 0.50005,0.50005 0 0 0 -0.25,0.43359 v 15.36328 l -1.34375,0.75391 v -15.99219 a 0.50005,0.50005 0 0 0 -0.74804,-0.43359 l -8.6875,4.9375 a 0.50005,0.50005 0 0 0 -0.25196,0.43359 v 32.84375 a 0.50005,0.50005 0 0 0 0.25,0.43359 l 8.78125,5.0625 a 0.50005,0.50005 0 0 0 0.75,-0.43359 l -0.0312,-16.93359 1.28125,-0.75391 v 17.5625 a 0.50005,0.50005 0 0 0 0.75196,0.43164 L 663.5293,373 a 0.50005,0.50005 0 0 0 0.24804,-0.43164 v -32.53125 a 0.50005,0.50005 0 0 0 -0.24804,-0.43164 l -8.875,-5.15625 a 0.50005,0.50005 0 0 0 -0.50196,-0.002 z m 0.75,1.30273 7.875,4.57422 v 31.95703 l -7.875,4.57422 v -17.56836 a 0.50005,0.50005 0 0 0 -0.7539,-0.42969 l -2.28125,1.34375 a 0.50005,0.50005 0 0 0 -0.2461,0.43164 l 0.0293,16.34961 -7.7793,-4.48437 v -32.26368 l 7.6875,-4.36914 v 15.98438 a 0.50005,0.50005 0 0 0 0.74414,0.43555 l 2.34375,-1.3125 a 0.50005,0.50005 0 0 0 0.25586,-0.43555 z"
             id="path2607" />
        </g>
        <g
           id="path2578"
           transform="matrix(0.21019807,0,0,0.21019807,-4.214948,-35.907333)"
           style="font-size:64px;font-family:Papyrus;-inkscape-font-specification:'Papyrus, Normal';white-space:pre;fill:#ffffff;fill-opacity:1;stroke:#0083e0;stroke-width:0.349928;stroke-linecap:round;stroke-linejoin:round;stroke-dasharray:none;stroke-opacity:1;paint-order:markers fill stroke">
          <path
             style="color:#000000;-inkscape-font-specification:Hexatus;fill:#ffffff;fill-opacity:1;stroke:#0083e0;stroke-width:0.349928;stroke-linecap:butt;stroke-linejoin:miter;stroke-dasharray:none;stroke-opacity:1"
             d="m 676.68359,333.47486 10,5.5 v 5.71875 l -8.65625,4.4375 -0.0312,-7.21875 -2.5625,1.5 v 9.4375 l 5.75,3.0625 -5.75,2.90625 -0.0312,10.4375 2.46875,-1 v -5.59375 l 8.84375,4.1875 -0.0625,5.8125 -0.0937,0.15625 -9.6875,5.4375 h -0.0312 l -10.15625,-5.5 v -33.59375 z"
             id="path2611" />
          <path
             style="color:#000000;-inkscape-font-specification:Hexatus;fill:#ffffff;fill-opacity:1;stroke:#0083e0;stroke-width:0.349928;stroke-linecap:butt;stroke-linejoin:miter;stroke-dasharray:none;stroke-opacity:1"
             d="m 676.92383,333.03711 a 0.50005,0.50005 0 0 0 -0.48828,0.004 l -9.99805,5.6875 a 0.50005,0.50005 0 0 0 -0.25391,0.43359 v 33.59375 a 0.50005,0.50005 0 0 0 0.26172,0.43945 l 10.15625,5.5 a 0.50005,0.50005 0 0 0 0.23828,0.0605 h 0.0312 a 0.50005,0.50005 0 0 0 0.24414,-0.0644 l 9.6875,-5.4375 a 0.50005,0.50005 0 0 0 0.18555,-0.17774 l 0.0937,-0.15625 a 0.50005,0.50005 0 0 0 0.0703,-0.25195 l 0.0625,-5.8125 a 0.50005,0.50005 0 0 0 -0.28515,-0.45703 l -8.84375,-4.1875 a 0.50005,0.50005 0 0 0 -0.71485,0.45117 v 5.25781 l -1.46679,0.59375 0.0293,-9.38672 5.47657,-2.76758 a 0.50005,0.50005 0 0 0 0.008,-0.88867 l -5.48438,-2.92187 v -8.84961 l 1.56641,-0.91797 0.0273,6.35156 a 0.50005,0.50005 0 0 0 0.72852,0.44336 l 8.65625,-4.4375 a 0.50005,0.50005 0 0 0 0.27148,-0.44531 v -5.71875 a 0.50005,0.50005 0 0 0 -0.25976,-0.4375 z m -0.23438,1.00976 9.49414,5.22266 v 5.11914 l -7.66015,3.92578 -0.0274,-6.40429 a 0.50005,0.50005 0 0 0 -0.75195,-0.42969 l -2.5625,1.5 a 0.50005,0.50005 0 0 0 -0.24805,0.43164 v 9.4375 a 0.50005,0.50005 0 0 0 0.26563,0.44141 l 4.90039,2.60937 -4.89063,2.47266 a 0.50005,0.50005 0 0 0 -0.27539,0.44336 l -0.0312,10.4375 a 0.50005,0.50005 0 0 0 0.6875,0.46484 l 2.46875,-1 a 0.50005,0.50005 0 0 0 0.3125,-0.46289 v -4.80274 l 7.83985,3.71094 -0.0566,5.30664 -9.30274,5.22266 -9.66797,-5.23438 v -33.00586 z"
             id="path2613" />
        </g>
        <g
           id="path2580"
           transform="matrix(0.21019807,0,0,0.21019807,-4.214948,-35.907333)"
           style="font-size:64px;font-family:Papyrus;-inkscape-font-specification:'Papyrus, Normal';white-space:pre;fill:#ffffff;fill-opacity:1;stroke:#0083e0;stroke-width:0.349928;stroke-linecap:round;stroke-linejoin:round;stroke-dasharray:none;stroke-opacity:1;paint-order:markers fill stroke">
          <path
             style="color:#000000;-inkscape-font-specification:Hexatus;fill:#ffffff;fill-opacity:1;stroke:#0083e0;stroke-width:0.349928;stroke-linecap:butt;stroke-linejoin:miter;stroke-dasharray:none;stroke-opacity:1"
             d="m 698.65234,334.53736 v 15.59375 l 2.375,-1.0625 v -14.59375 l 8.78125,5.1875 -0.0312,13.84375 -5.375,2.40625 5.28125,2.90625 0.0312,13.90625 -8.71875,4.875 v -15.71875 l -2.3125,1.125 0.0312,14.6875 -8.59375,-4.6875 -0.0312,-14.34375 5.09375,-2.6875 v -0.0312 l -5.125,-2.375 v -14.03125 z"
             id="path2617" />
          <path
             style="color:#000000;-inkscape-font-specification:Hexatus;fill:#ffffff;fill-opacity:1;stroke:#0083e0;stroke-width:0.349928;stroke-linecap:butt;stroke-linejoin:miter;stroke-dasharray:none;stroke-opacity:1"
             d="m 700.7793,334.04102 a 0.50005,0.50005 0 0 0 -0.25196,0.43359 v 14.26953 l -1.375,0.61523 v -14.82226 a 0.50005,0.50005 0 0 0 -0.75195,-0.43164 l -8.59375,5 a 0.50005,0.50005 0 0 0 -0.24805,0.43164 v 14.03125 a 0.50005,0.50005 0 0 0 0.28907,0.45312 l 4.24023,1.9668 -4.23047,2.23242 a 0.50005,0.50005 0 0 0 -0.26758,0.44336 l 0.0312,14.34375 a 0.50005,0.50005 0 0 0 0.25977,0.4375 l 8.59375,4.6875 a 0.50005,0.50005 0 0 0 0.74023,-0.43945 l -0.0312,-14.375 1.3125,-0.63867 v 14.91992 a 0.50005,0.50005 0 0 0 0.74414,0.4375 l 8.71875,-4.875 a 0.50005,0.50005 0 0 0 0.25586,-0.4375 l -0.0312,-13.90625 a 0.50005,0.50005 0 0 0 -0.25976,-0.4375 l -4.40039,-2.42188 4.45898,-1.99609 a 0.50005,0.50005 0 0 0 0.29492,-0.45508 l 0.0312,-13.84375 a 0.50005,0.50005 0 0 0 -0.24609,-0.43164 l -8.78125,-5.1875 a 0.50005,0.50005 0 0 0 -0.50195,-0.004 z m 0.74804,1.31054 7.78125,4.59571 -0.0312,13.23437 -5.08007,2.27344 a 0.50005,0.50005 0 0 0 -0.0352,0.89453 l 5.02148,2.76562 0.0312,13.31641 -7.71875,4.31641 v -14.86719 a 0.50005,0.50005 0 0 0 -0.71875,-0.44922 l -2.3125,1.125 a 0.50005,0.50005 0 0 0 -0.28125,0.45117 l 0.0293,13.8418 -7.5918,-4.14063 -0.0312,-13.74609 4.82618,-2.54492 a 0.50005,0.50005 0 0 0 0.26757,-0.44336 v -0.0312 a 0.50005,0.50005 0 0 0 -0.28906,-0.45313 L 690.55859,353.25 v -13.42578 l 7.59375,-4.41797 v 14.72461 a 0.50005,0.50005 0 0 0 0.70508,0.45703 l 2.375,-1.0625 a 0.50005,0.50005 0 0 0 0.29492,-0.45703 z"
             id="path2619" />
        </g>
        <g
           id="path2582"
           transform="matrix(0.21019807,0,0,0.21019807,-4.214948,-35.907333)"
           style="font-size:64px;font-family:Papyrus;-inkscape-font-specification:'Papyrus, Normal';white-space:pre;fill:#ffffff;fill-opacity:1;stroke:#0083e0;stroke-width:0.349928;stroke-linecap:round;stroke-linejoin:round;stroke-dasharray:none;stroke-opacity:1;paint-order:markers fill stroke">
          <path
             style="color:#000000;-inkscape-font-specification:Hexatus;fill:#ffffff;fill-opacity:1;stroke:#0083e0;stroke-width:0.349928;stroke-linecap:butt;stroke-linejoin:miter;stroke-dasharray:none;stroke-opacity:1"
             d="m 723.27734,333.41236 10.03125,5.90625 v 13.5 l -5.21875,2.90625 5.21875,2.96875 v 13.71875 l -9.71875,5.9375 -10.21875,-5.59375 -0.0312,-33.65625 z m -1.1875,8.84375 v 7.5625 h 0.0312 l 2.3125,-1.28125 -0.0312,-5.25 z m 0.0312,27.125 2.375,-1.25 v -5.34375 l -2.375,-1.03125 z"
             id="path2623" />
          <path
             style="color:#000000;-inkscape-font-specification:Hexatus;fill:#ffffff;fill-opacity:1;stroke:#0083e0;stroke-width:0.349928;stroke-linecap:butt;stroke-linejoin:miter;stroke-dasharray:none;stroke-opacity:1"
             d="m 723.0293,332.97852 -9.9375,5.6875 a 0.50005,0.50005 0 0 0 -0.25196,0.43359 l 0.0312,33.65625 a 0.50005,0.50005 0 0 0 0.25977,0.43945 l 10.21875,5.59375 a 0.50005,0.50005 0 0 0 0.5,-0.0117 l 9.71875,-5.9375 a 0.50005,0.50005 0 0 0 0.24023,-0.42773 v -13.71875 a 0.50005,0.50005 0 0 0 -0.25195,-0.43359 l -4.44727,-2.5293 4.44336,-2.47461 a 0.50005,0.50005 0 0 0 0.25586,-0.4375 v -13.5 a 0.50005,0.50005 0 0 0 -0.24609,-0.42969 l -10.03125,-5.90625 a 0.50005,0.50005 0 0 0 -0.50195,-0.004 z m 0.24414,1.01171 9.53515,5.61329 v 12.92187 l -4.96289,2.76172 a 0.50005,0.50005 0 0 0 -0.004,0.87305 l 4.96679,2.82421 v 13.14844 l -9.23242,5.63867 -9.70508,-5.3125 -0.0312,-33.07031 z m -0.98047,7.8086 a 0.50005,0.50005 0 0 0 -0.70313,0.45703 v 7.5625 a 0.50005,0.50005 0 0 0 0.5,0.5 h 0.0312 a 0.50005,0.50005 0 0 0 0.24219,-0.0625 l 2.3125,-1.28125 a 0.50005,0.50005 0 0 0 0.25781,-0.43945 l -0.0312,-5.25 a 0.50005,0.50005 0 0 0 -0.29687,-0.45508 z m 0.29687,1.22851 1.31446,0.58594 0.0273,4.63086 -1.3418,0.74414 z m -0.26953,18.26953 a 0.50005,0.50005 0 0 0 -0.69922,0.45899 v 7.625 a 0.50005,0.50005 0 0 0 0.73243,0.44336 l 2.375,-1.25 a 0.50005,0.50005 0 0 0 0.26757,-0.44336 v -5.34375 a 0.50005,0.50005 0 0 0 -0.30078,-0.45899 z m 0.30078,1.22071 1.375,0.59765 v 4.71485 l -1.375,0.72461 z"
             id="path2625" />
        </g>
        <g
           id="path2584"
           transform="matrix(0.21019807,0,0,0.21019807,-4.214948,-35.907333)"
           style="font-size:64px;font-family:Papyrus;-inkscape-font-specification:'Papyrus, Normal';white-space:pre;fill:#ffffff;fill-opacity:1;stroke:#0083e0;stroke-width:0.349928;stroke-linecap:round;stroke-linejoin:round;stroke-dasharray:none;stroke-opacity:1;paint-order:markers fill stroke">
          <path
             style="color:#000000;-inkscape-font-specification:Hexatus;fill:#ffffff;fill-opacity:1;stroke:#0083e0;stroke-width:0.349928;stroke-linecap:butt;stroke-linejoin:miter;stroke-dasharray:none;stroke-opacity:1"
             d="m 746.80859,333.78736 9.71875,5.78125 v 32.96875 l -9.90625,5.71875 -9.9375,-5.625 v -33.0625 z m -1.3125,10.125 v 25.5 l 2.34375,-1.25 0.0312,-25.53125 z"
             id="path2629" />
          <path
             style="color:#000000;-inkscape-font-specification:Hexatus;fill:#ffffff;fill-opacity:1;stroke:#0083e0;stroke-width:0.349928;stroke-linecap:butt;stroke-linejoin:miter;stroke-dasharray:none;stroke-opacity:1"
             d="m 746.56055,333.35352 -10.125,5.78125 a 0.50005,0.50005 0 0 0 -0.25196,0.43359 v 33.0625 a 0.50005,0.50005 0 0 0 0.25391,0.43555 l 9.9375,5.625 a 0.50005,0.50005 0 0 0 0.49609,-0.002 l 9.90625,-5.71875 a 0.50005,0.50005 0 0 0 0.25,-0.43359 v -32.96875 a 0.50005,0.50005 0 0 0 -0.24414,-0.42969 l -9.71875,-5.78125 a 0.50005,0.50005 0 0 0 -0.5039,-0.004 z m 0.24218,1.01171 9.22461,5.48829 v 32.39453 l -9.4082,5.43164 -9.43555,-5.33985 v -32.48047 z m 1.16407,7.77539 a 0.50005,0.50005 0 0 0 -0.33399,0.0508 l -2.375,1.28125 a 0.50005,0.50005 0 0 0 -0.26172,0.43945 v 25.5 a 0.50005,0.50005 0 0 0 0.73438,0.44141 l 2.34375,-1.25 a 0.50005,0.50005 0 0 0 0.26562,-0.44141 l 0.0312,-25.53125 a 0.50005,0.50005 0 0 0 -0.40429,-0.49024 z m -0.59766,1.32813 -0.0293,24.39258 -1.34375,0.71679 v -24.36718 z"
             id="path2631" />
        </g>
        <g
           id="path2586"
           transform="matrix(0.21019807,0,0,0.21019807,-4.214948,-35.907333)"
           style="font-size:64px;font-family:Papyrus;-inkscape-font-specification:'Papyrus, Normal';white-space:pre;fill:#ffffff;fill-opacity:1;stroke:#0083e0;stroke-width:0.349928;stroke-linecap:round;stroke-linejoin:round;stroke-dasharray:none;stroke-opacity:1;paint-order:markers fill stroke">
          <path
             style="color:#000000;-inkscape-font-specification:Hexatus;fill:#ffffff;fill-opacity:1;stroke:#0083e0;stroke-width:0.349928;stroke-linecap:butt;stroke-linejoin:miter;stroke-dasharray:none;stroke-opacity:1"
             d="m 770.02734,333.41236 h 0.0312 l 10.125,5.65625 -0.0312,33.5 -8.8125,-5.71875 v -6.40625 l -2.28125,1.25 v 15.6875 l -8.84375,-4.6875 v -33.5 z m -1.03125,10.21875 v 9.125 l 2.375,-1.09375 v -9.4375 z"
             id="path2635" />
          <path
             style="color:#000000;-inkscape-font-specification:Hexatus;fill:#ffffff;fill-opacity:1;stroke:#0083e0;stroke-width:0.349928;stroke-linecap:butt;stroke-linejoin:miter;stroke-dasharray:none;stroke-opacity:1"
             d="m 770.02734,332.91211 a 0.50005,0.50005 0 0 0 -0.2539,0.0703 l -9.8125,5.78125 a 0.50005,0.50005 0 0 0 -0.2461,0.42969 v 33.5 a 0.50005,0.50005 0 0 0 0.26563,0.44141 l 8.84375,4.6875 a 0.50005,0.50005 0 0 0 0.73437,-0.44141 v -15.39063 l 1.28125,-0.70117 v 5.56055 a 0.50005,0.50005 0 0 0 0.22852,0.41992 l 8.8125,5.71875 a 0.50005,0.50005 0 0 0 0.77148,-0.41992 l 0.0312,-33.5 a 0.50005,0.50005 0 0 0 -0.25586,-0.43555 l -10.125,-5.65625 a 0.50005,0.50005 0 0 0 -0.24414,-0.0645 z m 0.0215,1.06836 9.63476,5.38086 -0.0312,32.28711 -7.8125,-5.07032 v -6.13476 a 0.50005,0.50005 0 0 0 -0.74023,-0.4375 l -2.28125,1.25 a 0.50005,0.50005 0 0 0 -0.25977,0.4375 v 14.85742 l -7.84375,-4.1582 v -32.91406 z m 1.57031,7.81055 a 0.50005,0.50005 0 0 0 -0.50195,0.004 l -2.375,1.40625 a 0.50005,0.50005 0 0 0 -0.2461,0.42969 v 9.125 a 0.50005,0.50005 0 0 0 0.70899,0.45508 l 2.375,-1.09375 a 0.50005,0.50005 0 0 0 0.29101,-0.45508 v -9.4375 a 0.50005,0.50005 0 0 0 -0.25195,-0.43359 z m -0.74805,1.31054 v 8.24024 l -1.375,0.63476 v -8.0625 z"
             id="path2637" />
        </g>
        <g
           id="path2588"
           transform="matrix(0.21019807,0,0,0.21019807,-4.214948,-35.907333)"
           style="font-size:64px;font-family:Papyrus;-inkscape-font-specification:'Papyrus, Normal';white-space:pre;fill:#ffffff;fill-opacity:1;stroke:#0083e0;stroke-width:0.349928;stroke-linecap:round;stroke-linejoin:round;stroke-dasharray:none;stroke-opacity:1;paint-order:markers fill stroke">
          <path
             style="color:#000000;-inkscape-font-specification:Hexatus;fill:#ffffff;fill-opacity:1;stroke:#0083e0;stroke-width:0.349928;stroke-linecap:butt;stroke-linejoin:miter;stroke-dasharray:none;stroke-opacity:1"
             d="m 792.21484,342.69361 v 7.125 l 2.34375,-1.03125 v -5.125 z m 10.96875,-3.125 v 13.8125 l -5.21875,2.625 5.375,2.5625 -0.0625,13.8125 -8.75,5.09375 0.0625,-14.5 -2.375,-1 -0.0312,15.5 -8.65625,-4.8125 -0.0312,-33.15625 -0.0312,-0.0312 v -0.0312 l 9.96875,-5.5 z"
             id="path2641" />
          <path
             style="color:#000000;-inkscape-font-specification:Hexatus;fill:#ffffff;fill-opacity:1;stroke:#0083e0;stroke-width:0.349928;stroke-linecap:butt;stroke-linejoin:miter;stroke-dasharray:none;stroke-opacity:1"
             d="m 793.19141,333.50586 -9.96875,5.5 a 0.50005,0.50005 0 0 0 -0.25782,0.4375 v 0.0312 a 0.50005,0.50005 0 0 0 0.14649,0.35351 l -0.11524,-0.11523 0.0312,32.94922 a 0.50005,0.50005 0 0 0 0.25782,0.4375 l 8.65625,4.8125 a 0.50005,0.50005 0 0 0 0.74218,-0.43555 l 0.0293,-14.75 1.375,0.58008 -0.0606,14.16602 a 0.50005,0.50005 0 0 0 0.75196,0.43359 l 8.75,-5.09375 a 0.50005,0.50005 0 0 0 0.24804,-0.42969 l 0.0625,-13.8125 a 0.50005,0.50005 0 0 0 -0.28515,-0.45312 l -4.45313,-2.12305 4.30664,-2.16602 a 0.50005,0.50005 0 0 0 0.27539,-0.44726 v -13.8125 a 0.50005,0.50005 0 0 0 -0.25,-0.43359 l -9.75,-5.625 a 0.50005,0.50005 0 0 0 -0.49218,-0.004 z m 0.23632,1.01172 9.25586,5.33984 v 13.21485 l -4.94336,2.48632 a 0.50005,0.50005 0 0 0 0.01,0.89844 l 5.08789,2.42578 -0.0586,13.21094 -7.74805,4.50977 0.0586,-13.62696 a 0.50005,0.50005 0 0 0 -0.30664,-0.46289 l -2.375,-1 a 0.50005,0.50005 0 0 0 -0.69336,0.46094 l -0.0293,14.65039 -7.65821,-4.25781 -0.0312,-32.64649 z m -9.57812,4.63476 0.11523,0.11524 v 0.16211 a 0.50005,0.50005 0 0 0 -0.11523,-0.27735 z m 8.55664,3.08008 a 0.50005,0.50005 0 0 0 -0.69141,0.46094 v 7.125 a 0.50005,0.50005 0 0 0 0.70118,0.45703 l 2.34375,-1.03125 a 0.50005,0.50005 0 0 0 0.29882,-0.45703 v -5.125 A 0.50005,0.50005 0 0 0 794.75,343.20117 Z m 0.30859,1.20899 1.34375,0.55468 v 4.46485 l -1.34375,0.59179 z"
             id="path2643" />
        </g>
        <g
           id="path2590"
           transform="matrix(0.21019807,0,0,0.21019807,-4.214948,-35.907333)"
           style="font-size:64px;font-family:Papyrus;-inkscape-font-specification:'Papyrus, Normal';white-space:pre;fill:#ffffff;fill-opacity:1;stroke:#0083e0;stroke-width:0.349928;stroke-linecap:round;stroke-linejoin:round;stroke-dasharray:none;stroke-opacity:1;paint-order:markers fill stroke">
          <path
             style="color:#000000;-inkscape-font-specification:Hexatus;fill:#ffffff;fill-opacity:1;stroke:#0083e0;stroke-width:0.349928;stroke-linecap:butt;stroke-linejoin:miter;stroke-dasharray:none;stroke-opacity:1"
             d="m 815.83984,334.44361 11.0625,7.09375 v 28.53125 l -11.5,7.34375 -8.4375,-4.78125 -0.0312,-33.34375 z m -0.28125,9.21875 0.0625,24.1875 2.4375,-1.09375 0.0312,-21.9375 z"
             id="path2647" />
          <path
             style="color:#000000;-inkscape-font-specification:Hexatus;fill:#ffffff;fill-opacity:1;stroke:#0083e0;stroke-width:0.349928;stroke-linecap:butt;stroke-linejoin:miter;stroke-dasharray:none;stroke-opacity:1"
             d="m 815.60156,334.00391 -8.90625,4.84375 a 0.50005,0.50005 0 0 0 -0.26172,0.43945 l 0.0312,33.34375 a 0.50005,0.50005 0 0 0 0.25391,0.43555 l 8.4375,4.78125 a 0.50005,0.50005 0 0 0 0.51562,-0.0137 l 11.5,-7.34375 a 0.50005,0.50005 0 0 0 0.23047,-0.42187 v -28.53125 a 0.50005,0.50005 0 0 0 -0.23047,-0.41992 l -11.0625,-7.09375 a 0.50005,0.50005 0 0 0 -0.50781,-0.0195 z m 0.2168,1.01953 10.58398,6.78711 v 27.98437 l -11.01562,7.0332 -7.92188,-4.48828 -0.0312,-32.75586 z m -0.0527,8.18359 a 0.50005,0.50005 0 0 0 -0.70703,0.45703 l 0.0625,24.1875 a 0.50005,0.50005 0 0 0 0.70508,0.45508 l 2.4375,-1.09375 a 0.50005,0.50005 0 0 0 0.29492,-0.45703 l 0.0312,-21.9375 a 0.50005,0.50005 0 0 0 -0.29297,-0.45508 z m 0.29493,1.23438 1.52929,0.69921 -0.0312,21.29102 -1.43945,0.64648 z"
             id="path2649" />
        </g>
      </g>
      <g
         id="g2761"
         transform="translate(-11.543843,-12.144124)"
         style="fill:#ffffff;fill-opacity:1;stroke:#0083e0;stroke-width:0.0735542;stroke-dasharray:none;stroke-opacity:1">
        <g
           id="path2592"
           transform="matrix(0.21019807,0,0,0.21019807,-4.214948,-35.907333)"
           style="font-size:64px;font-family:Papyrus;-inkscape-font-specification:'Papyrus, Normal';white-space:pre;fill:#ffffff;fill-opacity:1;stroke:#0083e0;stroke-width:0.349928;stroke-linecap:round;stroke-linejoin:round;stroke-dasharray:none;stroke-opacity:1;paint-order:markers fill stroke">
          <path
             style="color:#000000;-inkscape-font-specification:Hexatus;fill:#ffffff;fill-opacity:1;stroke:#0083e0;stroke-width:0.349928;stroke-linecap:butt;stroke-linejoin:miter;stroke-dasharray:none;stroke-opacity:1"
             d="m 742.37109,445.55729 9.59375,-5.53125 -0.0625,33.15625 -8.4375,4.96875 -0.0625,-23.8125 -1.15625,0.625 -1.25,-0.625 -0.0625,23.84375 -8.625,-4.6875 v -33.5625 z"
             id="path2653" />
          <path
             style="color:#000000;-inkscape-font-specification:Hexatus;fill:#ffffff;fill-opacity:1;stroke:#0083e0;stroke-width:0.349928;stroke-linecap:butt;stroke-linejoin:miter;stroke-dasharray:none;stroke-opacity:1"
             d="m 732.55273,439.49609 a 0.50005,0.50005 0 0 0 -0.74414,0.43555 v 33.5625 a 0.50005,0.50005 0 0 0 0.26172,0.43945 l 8.625,4.6875 a 0.50005,0.50005 0 0 0 0.73828,-0.4375 l 0.0606,-23.03906 0.5293,0.26563 a 0.50005,0.50005 0 0 0 0.46093,-0.006 l 0.41993,-0.22657 0.0605,22.97461 a 0.50005,0.50005 0 0 0 0.75391,0.42969 l 8.4375,-4.96875 a 0.50005,0.50005 0 0 0 0.24609,-0.42969 l 0.0625,-33.15625 a 0.50005,0.50005 0 0 0 -0.75,-0.43359 l -9.34765,5.38867 z m 0.25586,1.28907 9.31836,5.20898 a 0.50005,0.50005 0 0 0 0.49414,-0.004 l 8.8418,-5.09765 -0.0606,32.0039 -7.43945,4.38086 -0.0606,-22.93945 a 0.50005,0.50005 0 0 0 -0.73828,-0.43945 l -0.92773,0.50195 -1.01758,-0.50977 a 0.50005,0.50005 0 0 0 -0.72266,0.44727 l -0.0605,23.00391 -7.62696,-4.14453 z"
             id="path2655" />
        </g>
        <g
           id="path2594"
           transform="matrix(0.21019807,0,0,0.21019807,-4.214948,-35.907333)"
           style="font-size:64px;font-family:Papyrus;-inkscape-font-specification:'Papyrus, Normal';white-space:pre;fill:#ffffff;fill-opacity:1;stroke:#0083e0;stroke-width:0.349928;stroke-linecap:round;stroke-linejoin:round;stroke-dasharray:none;stroke-opacity:1;paint-order:markers fill stroke">
          <path
             style="color:#000000;-inkscape-font-specification:Hexatus;fill:#ffffff;fill-opacity:1;stroke:#0083e0;stroke-width:0.349928;stroke-linecap:butt;stroke-linejoin:miter;stroke-dasharray:none;stroke-opacity:1"
             d="m 765.33984,434.05729 h 0.0312 l 10.125,5.65625 -0.0312,33.5 -8.8125,-5.71875 v -6.40625 l -2.28125,1.25 v 15.6875 l -8.84375,-4.6875 v -33.5 z m -1.03125,10.21875 v 9.125 l 2.375,-1.09375 v -9.4375 z"
             id="path2659" />
          <path
             style="color:#000000;-inkscape-font-specification:Hexatus;fill:#ffffff;fill-opacity:1;stroke:#0083e0;stroke-width:0.349928;stroke-linecap:butt;stroke-linejoin:miter;stroke-dasharray:none;stroke-opacity:1"
             d="m 765.33984,433.55664 a 0.50005,0.50005 0 0 0 -0.2539,0.0703 l -9.8125,5.78125 a 0.50005,0.50005 0 0 0 -0.2461,0.42969 v 33.5 a 0.50005,0.50005 0 0 0 0.26563,0.44336 l 8.84375,4.6875 a 0.50005,0.50005 0 0 0 0.73437,-0.44336 v -15.39062 l 1.28125,-0.70118 v 5.56055 a 0.50005,0.50005 0 0 0 0.22852,0.41992 l 8.8125,5.71875 a 0.50005,0.50005 0 0 0 0.77148,-0.41797 l 0.0312,-33.5 a 0.50005,0.50005 0 0 0 -0.25586,-0.4375 l -10.125,-5.65625 a 0.50005,0.50005 0 0 0 -0.24414,-0.0644 z m 0.0215,1.06836 9.63476,5.38086 -0.0312,32.28906 -7.8125,-5.07226 v -6.13477 a 0.50005,0.50005 0 0 0 -0.74023,-0.4375 l -2.28125,1.25 a 0.50005,0.50005 0 0 0 -0.25977,0.4375 v 14.85742 l -7.84375,-4.1582 V 440.125 Z m 1.57031,7.81055 a 0.50005,0.50005 0 0 0 -0.50195,0.004 l -2.375,1.40625 a 0.50005,0.50005 0 0 0 -0.2461,0.42969 v 9.125 a 0.50005,0.50005 0 0 0 0.70899,0.45508 l 2.375,-1.09375 a 0.50005,0.50005 0 0 0 0.29101,-0.45508 v -9.4375 a 0.50005,0.50005 0 0 0 -0.25195,-0.43359 z m -0.74805,1.3125 v 8.23828 l -1.375,0.63476 v -8.06054 z"
             id="path2661" />
        </g>
        <g
           id="path2596"
           transform="matrix(0.21019807,0,0,0.21019807,-4.214948,-35.907333)"
           style="font-size:64px;font-family:Papyrus;-inkscape-font-specification:'Papyrus, Normal';white-space:pre;fill:#ffffff;fill-opacity:1;stroke:#0083e0;stroke-width:0.349928;stroke-linecap:round;stroke-linejoin:round;stroke-dasharray:none;stroke-opacity:1;paint-order:markers fill stroke">
          <path
             style="color:#000000;-inkscape-font-specification:Hexatus;fill:#ffffff;fill-opacity:1;stroke:#0083e0;stroke-width:0.349928;stroke-linecap:butt;stroke-linejoin:miter;stroke-dasharray:none;stroke-opacity:1"
             d="m 787.40234,450.71354 2.5,-1.3125 -0.0312,-14.40625 q 8.84375,4.90625 8.84375,4.96875 v 14.03125 l -5.375,2.59375 5.40625,2.75 v 13.75 l -8.71875,5.21875 v -14.59375 l -2.40625,-1.1875 v 15.84375 l -8.71875,-4.9375 v -33.46875 q 0.15625,-0.21875 8.53125,-4.78125 z"
             id="path2665" />
          <path
             style="color:#000000;-inkscape-font-specification:Hexatus;fill:#ffffff;fill-opacity:1;stroke:#0083e0;stroke-width:0.349928;stroke-linecap:butt;stroke-linejoin:miter;stroke-dasharray:none;stroke-opacity:1"
             d="m 790.11328,434.55664 a 0.50005,0.50005 0 0 0 -0.74219,0.43945 l 0.0312,14.10352 -1.49804,0.78711 0.0293,-14.70313 a 0.50005,0.50005 0 0 0 -0.73828,-0.43945 c -2.79256,1.52132 -4.90089,2.67974 -6.32617,3.47852 -0.71264,0.39939 -1.25432,0.70864 -1.62891,0.92968 -0.18729,0.11053 -0.33287,0.19774 -0.4414,0.26758 -0.0543,0.0349 -0.0991,0.0653 -0.14063,0.0957 -0.0416,0.0304 -0.0618,0.0178 -0.16211,0.15821 a 0.50005,0.50005 0 0 0 -0.0937,0.28906 v 33.46875 a 0.50005,0.50005 0 0 0 0.25391,0.43555 l 8.71875,4.9375 a 0.50005,0.50005 0 0 0 0.74609,-0.43555 v -15.03906 l 1.40625,0.69336 v 14.2832 a 0.50005,0.50005 0 0 0 0.75782,0.42969 l 8.71875,-5.21875 a 0.50005,0.50005 0 0 0 0.24218,-0.42969 v -13.75 a 0.50005,0.50005 0 0 0 -0.27343,-0.44531 l -4.50586,-2.29297 4.46484,-2.1543 a 0.50005,0.50005 0 0 0 0.2832,-0.45117 v -14.03125 c 0,-1.6e-4 -0.039,-0.1951 -0.0391,-0.19531 -9e-5,-2.1e-4 -0.0487,-0.0896 -0.0488,-0.0899 -3.6e-4,-5.2e-4 -0.0465,-0.0563 -0.0605,-0.0703 -0.0281,-0.0281 -0.0425,-0.0394 -0.0547,-0.0488 -0.0244,-0.0189 -0.0396,-0.0278 -0.0566,-0.0391 -0.034,-0.0224 -0.0701,-0.0465 -0.11914,-0.0762 -0.098,-0.0592 -0.23805,-0.14104 -0.42383,-0.24805 -0.37156,-0.214 -0.9263,-0.5269 -1.66406,-0.9414 -1.47552,-0.829 -3.68646,-2.06164 -6.63477,-3.69727 z m 0.25977,1.28906 c 2.47004,1.37135 4.5795,2.54681 5.88672,3.28125 0.73619,0.41363 1.28692,0.72508 1.65234,0.93555 0.13619,0.0784 0.21955,0.12844 0.30273,0.17773 v 13.44141 l -5.09179,2.45703 a 0.50005,0.50005 0 0 0 -0.01,0.89649 l 5.13281,2.60937 v 13.16016 l -7.71875,4.62109 v -13.71289 a 0.50005,0.50005 0 0 0 -0.27929,-0.44727 l -2.40625,-1.1875 a 0.50005,0.50005 0 0 0 -0.72071,0.44727 v 14.98828 l -7.71875,-4.37305 v -32.91601 c 0.0878,-0.0553 0.19208,-0.12028 0.34571,-0.21094 0.36239,-0.21385 0.90014,-0.52048 1.60937,-0.91797 1.25229,-0.70183 3.25213,-1.80103 5.57422,-3.06836 l -0.0293,14.68555 a 0.50005,0.50005 0 0 0 0.73243,0.44336 l 2.5,-1.3125 a 0.50005,0.50005 0 0 0 0.26757,-0.44336 z"
             id="path2667" />
        </g>
        <g
           id="path2598"
           transform="matrix(0.21019807,0,0,0.21019807,-4.214948,-35.907333)"
           style="font-size:64px;font-family:Papyrus;-inkscape-font-specification:'Papyrus, Normal';white-space:pre;fill:#ffffff;fill-opacity:1;stroke:#0083e0;stroke-width:0.349928;stroke-linecap:round;stroke-linejoin:round;stroke-dasharray:none;stroke-opacity:1;paint-order:markers fill stroke">
          <path
             style="color:#000000;-inkscape-font-specification:Hexatus;fill:#ffffff;fill-opacity:1;stroke:#0083e0;stroke-width:0.349928;stroke-linecap:butt;stroke-linejoin:miter;stroke-dasharray:none;stroke-opacity:1"
             d="m 812.24609,434.11979 10,5.5 v 5.71875 l -8.65625,4.4375 -0.0312,-7.21875 -2.5625,1.5 v 9.4375 l 5.75,3.0625 -5.75,2.90625 -0.0312,10.4375 2.46875,-1 v -5.59375 l 8.84375,4.1875 -0.0625,5.8125 -0.0937,0.15625 -9.6875,5.4375 h -0.0312 l -10.15625,-5.5 v -33.59375 z"
             id="path2671" />
          <path
             style="color:#000000;-inkscape-font-specification:Hexatus;fill:#ffffff;fill-opacity:1;stroke:#0083e0;stroke-width:0.349928;stroke-linecap:butt;stroke-linejoin:miter;stroke-dasharray:none;stroke-opacity:1"
             d="m 812.48633,433.68164 a 0.50005,0.50005 0 0 0 -0.48828,0.004 L 802,439.37305 a 0.50005,0.50005 0 0 0 -0.25391,0.43359 v 33.59375 a 0.50005,0.50005 0 0 0 0.26172,0.43945 l 10.15625,5.5 a 0.50005,0.50005 0 0 0 0.23828,0.0606 h 0.0312 a 0.50005,0.50005 0 0 0 0.24414,-0.0625 l 9.6875,-5.4375 a 0.50005,0.50005 0 0 0 0.18555,-0.17969 l 0.0937,-0.15625 a 0.50005,0.50005 0 0 0 0.0703,-0.25195 l 0.0625,-5.8125 a 0.50005,0.50005 0 0 0 -0.28515,-0.45703 l -8.84375,-4.1875 a 0.50005,0.50005 0 0 0 -0.71485,0.45117 v 5.25781 l -1.46679,0.59375 0.0293,-9.38672 5.47657,-2.76757 a 0.50005,0.50005 0 0 0 0.008,-0.88868 l -5.48438,-2.91992 v -8.85156 l 1.56641,-0.91797 0.0273,6.35156 a 0.50005,0.50005 0 0 0 0.72852,0.44336 l 8.65625,-4.4375 a 0.50005,0.50005 0 0 0 0.27148,-0.44531 v -5.71875 a 0.50005,0.50005 0 0 0 -0.25976,-0.4375 z m -0.23633,1.01172 9.49609,5.22266 v 5.11718 l -7.66015,3.92774 -0.0274,-6.40625 a 0.50005,0.50005 0 0 0 -0.75195,-0.42969 l -2.5625,1.5 a 0.50005,0.50005 0 0 0 -0.24805,0.43164 v 9.4375 a 0.50005,0.50005 0 0 0 0.26563,0.44141 l 4.90039,2.60937 -4.89063,2.47266 a 0.50005,0.50005 0 0 0 -0.27539,0.44531 l -0.0312,10.4375 a 0.50005,0.50005 0 0 0 0.6875,0.46484 l 2.46875,-1 a 0.50005,0.50005 0 0 0 0.3125,-0.46484 v -4.80273 l 7.83985,3.71289 -0.0566,5.30468 -9.30274,5.22266 -9.66797,-5.23437 v -33.00586 z"
             id="path2673" />
        </g>
        <g
           id="path2600"
           transform="matrix(0.21019807,0,0,0.21019807,-4.214948,-35.907333)"
           style="font-size:64px;font-family:Papyrus;-inkscape-font-specification:'Papyrus, Normal';white-space:pre;fill:#ffffff;fill-opacity:1;stroke:#0083e0;stroke-width:0.349928;stroke-linecap:round;stroke-linejoin:round;stroke-dasharray:none;stroke-opacity:1;paint-order:markers fill stroke">
          <path
             style="color:#000000;-inkscape-font-specification:Hexatus;fill:#ffffff;fill-opacity:1;stroke:#0083e0;stroke-width:0.349928;stroke-linecap:butt;stroke-linejoin:miter;stroke-dasharray:none;stroke-opacity:1"
             d="m 834.24609,443.33854 v 7.125 l 2.34375,-1.03125 v -5.125 z m 10.96875,-3.125 v 13.8125 l -5.21875,2.625 5.375,2.5625 -0.0625,13.8125 -8.75,5.09375 0.0625,-14.5 -2.375,-1 -0.0312,15.5 -8.65625,-4.8125 -0.0312,-33.15625 -0.0312,-0.0312 v -0.0312 l 9.96875,-5.5 z"
             id="path2677" />
          <path
             style="color:#000000;-inkscape-font-specification:Hexatus;fill:#ffffff;fill-opacity:1;stroke:#0083e0;stroke-width:0.349928;stroke-linecap:butt;stroke-linejoin:miter;stroke-dasharray:none;stroke-opacity:1"
             d="m 835.22266,434.15039 -9.96875,5.5 a 0.50005,0.50005 0 0 0 -0.25782,0.4375 v 0.0312 a 0.50005,0.50005 0 0 0 0.14649,0.35352 l -0.11524,-0.11524 0.0312,32.95117 a 0.50005,0.50005 0 0 0 0.25782,0.43555 l 8.65625,4.8125 a 0.50005,0.50005 0 0 0 0.74218,-0.43555 l 0.0293,-14.75 1.375,0.58008 -0.0606,14.16602 a 0.50005,0.50005 0 0 0 0.75196,0.43554 l 8.75,-5.09375 a 0.50005,0.50005 0 0 0 0.24804,-0.43164 l 0.0625,-13.8125 a 0.50005,0.50005 0 0 0 -0.28515,-0.45312 l -4.45313,-2.12305 4.30664,-2.16601 a 0.50005,0.50005 0 0 0 0.27539,-0.44727 v -13.8125 a 0.50005,0.50005 0 0 0 -0.25,-0.43164 l -9.75,-5.625 a 0.50005,0.50005 0 0 0 -0.49218,-0.006 z m 0.23632,1.01172 9.25586,5.33984 v 13.2168 l -4.94336,2.48633 a 0.50005,0.50005 0 0 0 0.01,0.89648 l 5.08789,2.42774 -0.0586,13.20898 -7.74805,4.50977 0.0586,-13.62696 a 0.50005,0.50005 0 0 0 -0.30664,-0.46289 l -2.375,-1 a 0.50005,0.50005 0 0 0 -0.69336,0.46094 l -0.0293,14.65234 -7.65821,-4.25781 -0.0312,-32.64648 z m -9.57812,4.63476 0.11523,0.11524 v 0.16211 a 0.50005,0.50005 0 0 0 -0.11523,-0.27735 z m 8.55664,3.08008 a 0.50005,0.50005 0 0 0 -0.69141,0.46094 v 7.125 a 0.50005,0.50005 0 0 0 0.70118,0.45898 l 2.34375,-1.03125 a 0.50005,0.50005 0 0 0 0.29882,-0.45898 v -5.125 a 0.50005,0.50005 0 0 0 -0.30859,-0.46094 z m 0.30859,1.20899 1.34375,0.55664 v 4.46289 l -1.34375,0.5918 z"
             id="path2679" />
        </g>
      </g>
    </g>
  </g>
  <g
     inkscape:groupmode="layer"
     id="layer2"
     inkscape:label="Hidden Copies"
     style="display:none"
     transform="translate(-7.2920874,-8.3308251)">
    <text
       xml:space="preserve"
       transform="matrix(0.21019807,0,0,0.21019807,-129.74246,-66.126416)"
       id="text2542"
       style="font-size:64px;font-family:Papyrus;-inkscape-font-specification:'Papyrus, Normal';white-space:pre;shape-inside:url(#rect2544);display:inline;opacity:1;fill:#ffffff;stroke:#808080;stroke-width:1;stroke-linecap:round;stroke-linejoin:round;stroke-dasharray:none;paint-order:markers fill stroke;stop-color:#000000"
       x="186.875"
       y="0"><tspan
         x="643.27734"
         y="378.25611"
         id="tspan4524"><tspan
           style="font-family:Hexatus;-inkscape-font-specification:Hexatus;text-align:end;text-anchor:end"
           id="tspan4522">Hexboard 
</tspan></tspan><tspan
         x="732.30859"
         y="478.90104"
         id="tspan4528"><tspan
           style="font-family:Hexatus;-inkscape-font-specification:Hexatus;text-align:end;text-anchor:end"
           id="tspan4526">Maker</tspan></tspan></text>
  </g>
</svg>
